<?xml version="1.0" standalone="no"?>
<!DOCTYPE svg PUBLIC "-//W3C//DTD SVG 20010904//EN"
 "http://www.w3.org/TR/2001/REC-SVG-20010904/DTD/svg10.dtd">
<svg version="1.0" xmlns="http://www.w3.org/2000/svg"
 width="192.000000pt" height="194.000000pt" viewBox="0 0 192.000000 194.000000"
 preserveAspectRatio="xMidYMid meet">

<g transform="translate(0.000000,194.000000) scale(0.100000,-0.100000)"
fill="#000000" stroke="none">
<path d="M660 1690 l0 -70 -130 0 -130 0 0 -60 0 -60 -60 0 -60 0 0 -210 0
-210 -80 0 -80 0 0 -130 0 -130 80 0 80 0 0 -80 0 -80 60 0 60 0 0 80 0 80 70
0 70 0 0 50 0 50 60 0 60 0 0 -130 0 -130 -60 0 -60 0 0 -80 0 -80 60 0 60 0
0 -50 0 -50 290 0 290 0 0 50 0 50 70 0 70 0 0 80 0 80 -70 0 -70 0 0 130 0
130 -80 0 -80 0 0 80 0 80 80 0 80 0 0 80 0 80 70 0 70 0 0 -210 0 -210 60 0
60 0 0 -80 0 -80 80 0 80 0 0 80 0 80 70 0 70 0 0 130 0 130 -70 0 -70 0 0
210 0 210 -80 0 -80 0 0 60 0 60 -130 0 -130 0 0 70 0 70 -290 0 -290 0 0 -70z
m300 -610 l0 -160 60 0 60 0 0 -130 0 -130 80 0 80 0 0 -80 0 -80 -290 0 -290
0 0 80 0 80 80 0 80 0 0 130 0 130 -80 0 -80 0 0 80 0 80 80 0 80 0 0 80 0 80
70 0 70 0 0 -160z m-560 -210 l0 -50 -60 0 -60 0 0 50 0 50 60 0 60 0 0 -50z
m1260 0 l0 -50 -80 0 -80 0 0 50 0 50 80 0 80 0 0 -50z"/>
</g>
</svg>
